<svg xmlns="http://www.w3.org/2000/svg" viewBox="0 0 512 512" width="612" height="472">
    <style>
        .path:hover {
        fill: #ff0000; /* Change fill color on hover */
        }
    </style>
    <path class="path" d="M164.673 251.565C156.548 254.888 152.718 256.989 115.171 278.724C95.739 289.972 79.698 299.023 79.523 298.837C79.348 298.652 77.618 295.784 75.68 292.464C69.302 281.542 64.066 278 54.3 278C48.764 278 47.459 278.524 32.952 286.576C16.332 295.8 12.873 298.447 9.908 304.21C7.265 309.349 7.369 317.842 10.141 323.277C17.153 337.02 85.683 456.994 87.862 459.339C93.101 464.978 100.825 467.496 107.971 465.894C112.058 464.978 132.095 454.343 141.254 448.228C145.785 445.204 148.549 440.964 149.895 434.974C151.25 428.94 149.873 423.344 144.966 414.941C142.785 411.207 141 407.699 141 407.146C141 406.593 144.262 404.348 148.25 402.158L155.5 398.175 214.5 414.066C246.95 422.806 277.352 430.465 282.06 431.085C291.744 432.361 300.952 431.363 311.358 427.91C316.995 426.04 334.907 416.202 337.677 413.456C338.578 412.562 337.591 411.04 333.474 406.974C330.514 404.051 328.373 401.205 328.717 400.649C329.061 400.093 327.127 400.93 324.421 402.508C305.457 413.569 296.307 416.152 283 414.199C278.875 413.594 248.637 405.877 215.806 397.049C182.974 388.222 155.057 381 153.768 381C152.479 381 147.167 383.444 141.962 386.43C136.758 389.417 132.191 391.554 131.814 391.18C131.437 390.806 121.448 373.4 109.617 352.5C93.218 323.53 88.391 314.236 89.303 313.388C91.736 311.128 163.71 270.128 169.5 267.704C172.8 266.323 178.313 264.641 181.75 263.966C185.188 263.292 188 262.448 188 262.091C188 261.734 185.172 258.64 181.716 255.214C174.638 248.199 173.499 247.955 164.673 251.565M39.334 302.154C31.543 306.605 24.967 311.02 24.719 311.965C24.472 312.91 24.772 314.82 25.385 316.21C25.998 317.6 43.114 348.04 63.42 383.855C86.804 425.098 101.024 449.19 102.204 449.565C104.734 450.368 131.851 435.287 133.247 432.301C134.14 430.39 129.316 421.33 96.515 363.301C75.748 326.56 58.05 295.938 57.187 295.25C56.324 294.563 55.141 294.014 54.559 294.03C53.976 294.047 47.125 297.702 39.334 302.154M221.302 312.501C218.326 314.586 217.508 319.149 219.441 322.886C221.156 326.203 220.716 326.038 248.948 333.909C256.895 336.124 263.506 337.827 263.64 337.693C263.774 337.559 258.734 332.247 252.44 325.888C241.845 315.185 240.551 314.203 235.013 312.663C227.609 310.605 224.069 310.563 221.302 312.501M43.923 314.923C39.039 319.808 40.857 327.808 47.339 329.947C55.255 332.559 62.357 324.459 58.571 317.137C55.475 311.15 48.718 310.129 43.923 314.923" fill="#fbb212"/>
    <path class="path" d="M257.984 46.683C230.554 53.703 100.568 88.412 97.399 89.563C91.028 91.876 89.139 97.753 93.25 102.469C95.138 104.635 99.28 106.053 119 111.283L142.5 117.516 143.026 161.508C143.316 185.704 143.653 205.602 143.776 205.727C145.931 207.913 154.942 210.067 188.5 216.419C210.5 220.583 233.225 224.716 239 225.603C252.704 227.709 274.456 227.677 288.5 225.532C299.603 223.836 376.084 209.425 379.16 208.449C383.428 207.095 383.478 206.604 384 161.163L384.5 117.632 396.5 114.355C403.1 112.553 408.613 111.061 408.75 111.039C408.887 111.018 408.994 125.963 408.988 144.25L408.975 177.5 401.648 181.744C389.542 188.755 390.5 185.281 390.5 222.192L390.5 254.173 393.425 256.689C397.453 260.154 401.393 259.333 409.243 253.394C412.684 250.79 415.996 248.286 416.602 247.83C417.276 247.323 420.187 248.879 424.102 251.838C435.131 260.175 437.436 260.718 442.077 256.077L445 253.154 445 221.531C445 184.918 446.021 188.398 433.236 181.434L426.013 177.5 426.007 141.75C426 106.223 426.013 106 428.077 106C430.74 106 436 100.771 436 98.124C436 94.087 433.748 91.068 429.601 89.547C426.506 88.411 276.398 48.388 265.455 45.782C264.331 45.514 260.969 45.92 257.984 46.683M197.5 80.021C162.85 89.291 133.947 97.017 133.271 97.188C131.914 97.532 261.594 132.036 264 131.971C264.825 131.949 294.634 124.167 330.243 114.678L394.985 97.426 330.224 80.213C294.606 70.746 264.346 63.037 262.982 63.082C261.617 63.128 232.15 70.75 197.5 80.021M160 157.96L160 193.858L165.25 194.904C177.319 197.308 219.452 205.245 232.946 207.656C253.378 211.308 273.637 211.309 294 207.658C319.421 203.101 366.228 194.106 366.634 193.7C366.849 193.484 366.907 177.342 366.763 157.829L366.5 122.35L316.5 135.66C289 142.981 265.25 148.977 263.722 148.985C261.628 148.996 168.023 124.792 161.25 122.488C160.265 122.153 160 129.682 160 157.96M412.25 195.024L407 198.04L407 216.027L407 234.013L411.15 231.006C416.209 227.341 418.082 227.272 423.662 230.542L428 233.084L428 215.555L428 198.025L423.924 195.452C418.023 191.727 417.992 191.726 412.25 195.024M179.5 247.155L174.5 248.18L181.927 255.59C188.723 262.37 189.701 263 193.427 263.005C195.747 263.008 203.74 265.2 212 268.1C246.759 280.302 264.637 286.009 279.07 289.506C298.033 294.102 301.506 295.486 304.75 299.739C307.434 303.258 308.792 310.71 307.608 315.427C306.454 320.025 301.367 324.712 296.184 325.956C290.489 327.322 284.876 326.323 259.917 319.501C250.888 317.032 243.057 315.01 242.516 315.007C241.975 315.003 246.644 320.126 252.892 326.391L264.25 337.782L273.875 340.329C288.977 344.324 304.238 346.351 313.436 345.584C327.72 344.393 332.932 341.907 386.47 310.759C413.987 294.75 439.65 280.195 443.5 278.415C466.709 267.682 483.496 270.656 486.892 286.102C488.467 293.264 486.541 300.335 481.842 304.65C480.554 305.832 445.75 327.569 404.5 352.955C363.25 378.34 329.349 399.538 329.165 400.061C328.98 400.584 328.305 400.722 327.665 400.368C327.024 400.013 329.373 402.671 332.884 406.273L339.268 412.824L352.384 404.766C456.085 341.057 491.099 319.205 494.129 316.304C500.149 310.541 503.291 302.924 503.798 292.86C505.15 266.07 484.441 250.385 455.746 256.466C443.264 259.111 432.532 264.568 381.947 293.991C333.546 322.144 324.895 326.93 322.326 326.978C321.52 326.993 321.756 325.28 323.076 321.525C327.169 309.879 324.626 297.249 316.33 288.023C309.975 280.954 305.027 278.382 292.419 275.591C276.13 271.986 265.498 268.827 241.349 260.415C203.597 247.266 202.217 246.868 193 246.484C188.325 246.289 182.25 246.591 179.5 247.155" fill="#ef5b21"/>
</svg>
