<svg xmlns="http://www.w3.org/2000/svg" width="712" height="512" viewBox="0 0 512 512" version="1.1"><path d="M 164.673 251.565 C 156.548 254.888, 152.718 256.989, 115.171 278.724 C 95.739 289.972, 79.698 299.023, 79.523 298.837 C 79.348 298.652, 77.618 295.784, 75.680 292.464 C 69.302 281.542, 64.066 278, 54.300 278 C 48.764 278, 47.459 278.524, 32.952 286.576 C 16.332 295.800, 12.873 298.447, 9.908 304.210 C 7.265 309.349, 7.369 317.842, 10.141 323.277 C 17.153 337.020, 85.683 456.994, 87.862 459.339 C 93.101 464.978, 100.825 467.496, 107.971 465.894 C 112.058 464.978, 132.095 454.343, 141.254 448.228 C 145.785 445.204, 148.549 440.964, 149.895 434.974 C 151.250 428.940, 149.873 423.344, 144.966 414.941 C 142.785 411.207, 141 407.699, 141 407.146 C 141 406.593, 144.262 404.348, 148.250 402.158 L 155.500 398.175 214.500 414.066 C 246.950 422.806, 277.352 430.465, 282.060 431.085 C 291.744 432.361, 300.952 431.363, 311.358 427.910 C 316.995 426.040, 334.907 416.202, 337.677 413.456 C 338.578 412.562, 337.591 411.040, 333.474 406.974 C 330.514 404.051, 328.373 401.205, 328.717 400.649 C 329.061 400.093, 327.127 400.930, 324.421 402.508 C 305.457 413.569, 296.307 416.152, 283 414.199 C 278.875 413.594, 248.637 405.877, 215.806 397.049 C 182.974 388.222, 155.057 381, 153.768 381 C 152.479 381, 147.167 383.444, 141.962 386.430 C 136.758 389.417, 132.191 391.554, 131.814 391.180 C 131.437 390.806, 121.448 373.400, 109.617 352.500 C 93.218 323.530, 88.391 314.236, 89.303 313.388 C 91.736 311.128, 163.710 270.128, 169.500 267.704 C 172.800 266.323, 178.313 264.641, 181.750 263.966 C 185.188 263.292, 188 262.448, 188 262.091 C 188 261.734, 185.172 258.640, 181.716 255.214 C 174.638 248.199, 173.499 247.955, 164.673 251.565 M 39.334 302.154 C 31.543 306.605, 24.967 311.020, 24.719 311.965 C 24.472 312.910, 24.772 314.820, 25.385 316.210 C 25.998 317.600, 43.114 348.040, 63.420 383.855 C 86.804 425.098, 101.024 449.190, 102.204 449.565 C 104.734 450.368, 131.851 435.287, 133.247 432.301 C 134.140 430.390, 129.316 421.330, 96.515 363.301 C 75.748 326.560, 58.050 295.938, 57.187 295.250 C 56.324 294.563, 55.141 294.014, 54.559 294.030 C 53.976 294.047, 47.125 297.702, 39.334 302.154 M 221.302 312.501 C 218.326 314.586, 217.508 319.149, 219.441 322.886 C 221.156 326.203, 220.716 326.038, 248.948 333.909 C 256.895 336.124, 263.506 337.827, 263.640 337.693 C 263.774 337.559, 258.734 332.247, 252.440 325.888 C 241.845 315.185, 240.551 314.203, 235.013 312.663 C 227.609 310.605, 224.069 310.563, 221.302 312.501 M 43.923 314.923 C 39.039 319.808, 40.857 327.808, 47.339 329.947 C 55.255 332.559, 62.357 324.459, 58.571 317.137 C 55.475 311.150, 48.718 310.129, 43.923 314.923" stroke="none" fill="#fbb212" fill-rule="evenodd"/><path d="M 257.984 46.683 C 230.554 53.703, 100.568 88.412, 97.399 89.563 C 91.028 91.876, 89.139 97.753, 93.250 102.469 C 95.138 104.635, 99.280 106.053, 119 111.283 L 142.500 117.516 143.026 161.508 C 143.316 185.704, 143.653 205.602, 143.776 205.727 C 145.931 207.913, 154.942 210.067, 188.500 216.419 C 210.500 220.583, 233.225 224.716, 239 225.603 C 252.704 227.709, 274.456 227.677, 288.500 225.532 C 299.603 223.836, 376.084 209.425, 379.160 208.449 C 383.428 207.095, 383.478 206.604, 384 161.163 L 384.500 117.632 396.500 114.355 C 403.100 112.553, 408.613 111.061, 408.750 111.039 C 408.887 111.018, 408.994 125.963, 408.988 144.250 L 408.975 177.500 401.648 181.744 C 389.542 188.755, 390.500 185.281, 390.500 222.192 L 390.500 254.173 393.425 256.689 C 397.453 260.154, 401.393 259.333, 409.243 253.394 C 412.684 250.790, 415.996 248.286, 416.602 247.830 C 417.276 247.323, 420.187 248.879, 424.102 251.838 C 435.131 260.175, 437.436 260.718, 442.077 256.077 L 445 253.154 445 221.531 C 445 184.918, 446.021 188.398, 433.236 181.434 L 426.013 177.500 426.007 141.750 C 426 106.223, 426.013 106, 428.077 106 C 430.740 106, 436 100.771, 436 98.124 C 436 94.087, 433.748 91.068, 429.601 89.547 C 426.506 88.411, 276.398 48.388, 265.455 45.782 C 264.331 45.514, 260.969 45.920, 257.984 46.683 M 197.500 80.021 C 162.850 89.291, 133.947 97.017, 133.271 97.188 C 131.914 97.532, 261.594 132.036, 264 131.971 C 264.825 131.949, 294.634 124.167, 330.243 114.678 L 394.985 97.426 330.224 80.213 C 294.606 70.746, 264.346 63.037, 262.982 63.082 C 261.617 63.128, 232.150 70.750, 197.500 80.021 M 160 157.960 L 160 193.858 165.250 194.904 C 177.319 197.308, 219.452 205.245, 232.946 207.656 C 253.378 211.308, 273.637 211.309, 294 207.658 C 319.421 203.101, 366.228 194.106, 366.634 193.700 C 366.849 193.484, 366.907 177.342, 366.763 157.829 L 366.500 122.350 316.500 135.660 C 289 142.981, 265.250 148.977, 263.722 148.985 C 261.628 148.996, 168.023 124.792, 161.250 122.488 C 160.265 122.153, 160 129.682, 160 157.960 M 412.250 195.024 L 407 198.040 407 216.027 L 407 234.013 411.150 231.006 C 416.209 227.341, 418.082 227.272, 423.662 230.542 L 428 233.084 428 215.555 L 428 198.025 423.924 195.452 C 418.023 191.727, 417.992 191.726, 412.250 195.024 M 179.500 247.155 L 174.500 248.180 181.927 255.590 C 188.723 262.370, 189.701 263, 193.427 263.005 C 195.747 263.008, 203.740 265.200, 212 268.100 C 246.759 280.302, 264.637 286.009, 279.070 289.506 C 298.033 294.102, 301.506 295.486, 304.750 299.739 C 307.434 303.258, 308.792 310.710, 307.608 315.427 C 306.454 320.025, 301.367 324.712, 296.184 325.956 C 290.489 327.322, 284.876 326.323, 259.917 319.501 C 250.888 317.032, 243.057 315.010, 242.516 315.007 C 241.975 315.003, 246.644 320.126, 252.892 326.391 L 264.250 337.782 273.875 340.329 C 288.977 344.324, 304.238 346.351, 313.436 345.584 C 327.720 344.393, 332.932 341.907, 386.470 310.759 C 413.987 294.750, 439.650 280.195, 443.500 278.415 C 466.709 267.682, 483.496 270.656, 486.892 286.102 C 488.467 293.264, 486.541 300.335, 481.842 304.650 C 480.554 305.832, 445.750 327.569, 404.500 352.955 C 363.250 378.340, 329.349 399.538, 329.165 400.061 C 328.980 400.584, 328.305 400.722, 327.665 400.368 C 327.024 400.013, 329.373 402.671, 332.884 406.273 L 339.268 412.824 352.384 404.766 C 456.085 341.057, 491.099 319.205, 494.129 316.304 C 500.149 310.541, 503.291 302.924, 503.798 292.860 C 505.150 266.070, 484.441 250.385, 455.746 256.466 C 443.264 259.111, 432.532 264.568, 381.947 293.991 C 333.546 322.144, 324.895 326.930, 322.326 326.978 C 321.520 326.993, 321.756 325.280, 323.076 321.525 C 327.169 309.879, 324.626 297.249, 316.330 288.023 C 309.975 280.954, 305.027 278.382, 292.419 275.591 C 276.130 271.986, 265.498 268.827, 241.349 260.415 C 203.597 247.266, 202.217 246.868, 193 246.484 C 188.325 246.289, 182.250 246.591, 179.500 247.155" stroke="none" fill="#ef5b21" fill-rule="evenodd"/></svg>