<svg xmlns="http://www.w3.org/2000/svg" viewBox="0 0 24 24" width="24" height="24">
    <path fill="none" d="M0 0h24v24H0z"/>
    <path d="M12 12c3.31 0 6-2.69 6-6s-2.69-6-6-6-6 2.69-6 6 2.69 6 6 6zm0 2c-3.18 0-6.1-1.25-8.32-3.29C3.61 10.55 2 11.64 2 13c0 2.21 5.33 4 10 4s10-1.79 10-4c0-1.36-1.61-2.45-3.68-3.29C18.1 12.75 15.18 14 12 14zm0 6c-2.67 0-8 1.34-8 4v2h16v-2c0-2.66-5.33-4-8-4zM12 2c4.41 0 8 3.59 8 8H4c0-4.41 3.59-8 8-8zm0 2c-3.31 0-6 2.69-6 6h12c0-3.31-2.69-6-6-6z"/>
    <text x="50%" y="90%" dominant-baseline="middle" text-anchor="middle">School</text>
</svg>
