<svg xmlns="http://www.w3.org/2000/svg" width="329" height="217" viewBox="0 0 329 217" version="1.1">

    <path d="M 55 53.500 L 108.493 107 54.247 161.253 C 24.411 191.093, 0 215.843, 0 216.253 C -0 217.232, 328.788 217.229, 329.191 216.250 C 329.361 215.837, 329.383 167.013, 329.241 107.750 L 328.982 0 165.245 0 L 1.507 0 55 53.500 M 229.054 83.197 C 227.858 87.214, 226.176 92.399, 225.316 94.719 L 223.752 98.939 212.364 99.219 L 200.976 99.500 209.970 106 C 214.917 109.575, 218.972 112.903, 218.982 113.397 C 218.992 113.890, 217.633 118.562, 215.961 123.780 C 214.290 128.998, 213.052 133.630, 213.211 134.074 C 213.467 134.789, 220.161 130.298, 228.276 123.970 C 229.802 122.780, 231.602 122.024, 232.276 122.291 C 232.949 122.558, 237.465 125.742, 242.310 129.366 C 249.204 134.522, 250.972 135.471, 250.436 133.728 C 250.059 132.502, 248.412 127.308, 246.774 122.184 C 243.902 113.196, 243.862 112.819, 245.649 111.459 C 246.667 110.684, 250.787 107.676, 254.804 104.775 L 262.108 99.500 250.594 99.219 L 239.080 98.937 235.454 87.719 C 233.460 81.548, 231.693 76.364, 231.528 76.197 C 231.362 76.030, 230.249 79.180, 229.054 83.197" stroke="none" fill="#bc0404" fill-rule="evenodd"/><path d="M 0 107.749 L 0 215.498 54.248 161.250 L 108.495 107.002 55.001 53.501 C 25.579 24.076, 1.168 0, 0.754 0 C 0.339 0, 0 48.487, 0 107.749 M 229.054 83.197 C 227.858 87.214, 226.176 92.399, 225.316 94.719 L 223.752 98.939 212.364 99.219 L 200.976 99.500 209.970 106 C 214.917 109.575, 218.972 112.903, 218.982 113.397 C 218.992 113.890, 217.633 118.562, 215.961 123.780 C 214.290 128.998, 213.052 133.630, 213.211 134.074 C 213.467 134.789, 220.161 130.298, 228.276 123.970 C 229.802 122.780, 231.602 122.024, 232.276 122.291 C 232.949 122.558, 237.465 125.742, 242.310 129.366 C 249.204 134.522, 250.972 135.471, 250.436 133.728 C 250.059 132.502, 248.412 127.308, 246.774 122.184 C 243.902 113.196, 243.862 112.819, 245.649 111.459 C 246.667 110.684, 250.787 107.676, 254.804 104.775 L 262.108 99.500 250.594 99.219 L 239.080 98.937 235.454 87.719 C 233.460 81.548, 231.693 76.364, 231.528 76.197 C 231.362 76.030, 230.249 79.180, 229.054 83.197" stroke="none" fill="#fcec04" fill-rule="evenodd"/></svg>